v -0.313 0.302 0.12
v -0.313 0.302 -0.12
v -0.335 0.254 0.12
v -0.335 0.254 -0.12
v -0.353 0.205 0.12
v -0.353 0.205 -0.12
v -0.367 0.155 0.12
v -0.367 0.155 -0.12
v -0.377 0.104 0.12
v -0.377 0.104 -0.12
v -0.383 0.052 0.12
v -0.383 0.052 -0.12
v -0.385 0 0.12
v -0.385 0 -0.12
v -0.383 -0.052 0.12
v -0.383 -0.052 -0.12
v -0.377 -0.104 0.12
v -0.377 -0.104 -0.12
v -0.367 -0.155 0.12
v -0.367 -0.155 -0.12
v -0.353 -0.205 0.12
v -0.353 -0.205 -0.12
v -0.335 -0.254 0.12
v -0.335 -0.254 -0.12
v -0.313 -0.302 0.12
v -0.313 -0.302 -0.12
v -0.286 -0.346 0.12
v -0.286 -0.346 -0.12
v -0.253 -0.385 0.12
v -0.253 -0.385 -0.12
v -0.215 -0.418 0.12
v -0.215 -0.418 -0.12
v -0.173 -0.445 0.12
v -0.173 -0.445 -0.12
v -0.127 -0.467 0.12
v -0.127 -0.467 -0.12
v -0.079 -0.484 0.12
v -0.079 -0.484 -0.12
v -0.028 -0.495 0.12
v -0.028 -0.495 -0.12
v 0.024 -0.5 0.12
v 0.024 -0.5 -0.12
v 0.076 -0.5 0.12
v 0.076 -0.5 -0.12
v 0.127 -0.495 0.12
v 0.127 -0.495 -0.12
v 0.178 -0.484 0.12
v 0.178 -0.484 -0.12
v 0.226 -0.467 0.12
v 0.226 -0.467 -0.12
v 0.272 -0.445 0.12
v 0.272 -0.445 -0.12
v 0.315 -0.418 0.12
v 0.315 -0.418 -0.12
v 0.353 -0.385 0.12
v 0.353 -0.385 -0.12
v 0.17 -0.15 0.12
v 0.17 -0.15 -0.12
v 0.137 -0.195 0.12
v 0.137 -0.195 -0.12
v 0.095 -0.223 0.12
v 0.095 -0.223 -0.12
v 0.05 -0.232 0.12
v 0.05 -0.232 -0.12
v 0.004 -0.223 0.12
v 0.004 -0.223 -0.12
v -0.038 -0.195 0.12
v -0.038 -0.195 -0.12
v -0.071 -0.15 0.12
v -0.071 -0.15 -0.12
v -0.091 -0.101 0.12
v -0.091 -0.101 -0.12
v -0.102 -0.051 0.12
v -0.102 -0.051 -0.12
v -0.106 0 0.12
v -0.106 0 -0.12
v -0.102 0.051 0.12
v -0.102 0.051 -0.12
v -0.091 0.101 0.12
v -0.091 0.101 -0.12
v -0.071 0.15 0.12
v -0.071 0.15 -0.12
v -0.038 0.195 0.12
v -0.038 0.195 -0.12
v 0.004 0.223 0.12
v 0.004 0.223 -0.12
v 0.05 0.232 0.12
v 0.05 0.232 -0.12
v 0.095 0.223 0.12
v 0.095 0.223 -0.12
v 0.137 0.195 0.12
v 0.137 0.195 -0.12
v 0.17 0.15 0.12
v 0.17 0.15 -0.12
v 0.385 0.346 0.12
v 0.385 0.346 -0.12
v 0.353 0.385 0.12
v 0.353 0.385 -0.12
v 0.315 0.418 0.12
v 0.315 0.418 -0.12
v 0.272 0.445 0.12
v 0.272 0.445 -0.12
v 0.226 0.467 0.12
v 0.226 0.467 -0.12
v 0.178 0.484 0.12
v 0.178 0.484 -0.12
v 0.127 0.495 0.12
v 0.127 0.495 -0.12
v 0.076 0.5 0.12
v 0.076 0.5 -0.12
v 0.024 0.5 0.12
v 0.024 0.5 -0.12
v -0.028 0.495 0.12
v -0.028 0.495 -0.12
v -0.079 0.484 0.12
v -0.079 0.484 -0.12
v -0.127 0.467 0.12
v -0.127 0.467 -0.12
v -0.173 0.445 0.12
v -0.173 0.445 -0.12
v -0.215 0.418 0.12
v -0.215 0.418 -0.12
v -0.253 0.385 0.12
v -0.253 0.385 -0.12
v -0.286 0.346 0.12
v -0.286 0.346 -0.12
v -0.259 0.331 0.12
v -0.285 0.289 0.12
v -0.306 0.243 0.12
v -0.324 0.196 0.12
v -0.337 0.148 0.12
v -0.347 0.099 0.12
v -0.352 0.05 0.12
v -0.354 0 0.12
v -0.352 -0.05 0.12
v -0.347 -0.099 0.12
v -0.337 -0.148 0.12
v -0.324 -0.196 0.12
v -0.306 -0.243 0.12
v -0.285 -0.289 0.12
v -0.259 -0.331 0.12
v -0.226 -0.368 0.12
v -0.188 -0.399 0.12
v -0.146 -0.425 0.12
v -0.1 -0.444 0.12
v -0.052 -0.459 0.12
v -0.226 0.368 0.12
v -0.146 0.425 0.12
v -0.188 0.399 0.12
v -0.1 0.444 0.12
v -0.052 0.459 0.12
v -0.001 0.467 0.12
v 0.05 0.47 0.12
v 0.101 0.467 0.12
v 0.151 0.459 0.12
v 0.199 0.444 0.12
v 0.245 0.425 0.12
v 0.287 0.399 0.12
v 0.346 0.348 0.12
v 0.121 0.245 0.12
v 0.174 0.204 0.12
v 0.074 0.261 0.12
v 0.025 0.261 0.12
v -0.022 0.245 0.12
v -0.064 0.214 0.12
v -0.098 0.166 0.12
v -0.117 0.121 0.12
v -0.13 0.073 0.12
v -0.136 0.025 0.12
v -0.136 -0.025 0.12
v -0.13 -0.073 0.12
v -0.117 -0.121 0.12
v -0.001 -0.467 0.12
v -0.098 -0.166 0.12
v 0.05 -0.47 0.12
v 0.101 -0.467 0.12
v -0.064 -0.214 0.12
v 0.151 -0.459 0.12
v 0.199 -0.444 0.12
v -0.022 -0.245 0.12
v 0.245 -0.425 0.12
v 0.308 -0.379 0.12
v 0.025 -0.261 0.12
v 0.074 -0.261 0.12
v 0.121 -0.245 0.12
v 0.174 -0.204 0.12
vt 0.25 0.25 0
vt 0.75 0.25 0
vt 0.25 0.75 0
vn -0.909 0.418 0
vn -0.939 0.344 0
vn -0.963 0.269 0
vn -0.981 0.192 0
vn -0.993 0.116 0
vn -0.999 0.039 0
vn -0.999 -0.039 0
vn -0.993 -0.116 0
vn -0.981 -0.192 0
vn -0.963 -0.269 0
vn -0.939 -0.344 0
vn -0.909 -0.418 0
vn -0.852 -0.523 0
vn -0.76 -0.65 0
vn -0.655 -0.755 0
vn -0.545 -0.839 0
vn -0.432 -0.902 0
vn -0.321 -0.947 0
vn -0.212 -0.977 0
vn -0.106 -0.994 0
vn 0 -1 0
vn 0.106 -0.994 0
vn 0.212 -0.977 0
vn 0.321 -0.947 0
vn 0.432 -0.902 0
vn 0.545 -0.839 0
vn 0.655 -0.755 0
vn 0.79 0.613 0
vn -0.81 0.587 0
vn -0.55 0.835 0
vn -0.195 0.981 0
vn 0.195 0.981 0
vn 0.55 0.835 0
vn 0.81 0.587 0
vn 0.926 0.377 0
vn 0.973 0.23 0
vn 0.997 0.077 0
vn 0.997 -0.077 0
vn 0.973 -0.23 0
vn 0.926 -0.377 0
vn 0.81 -0.587 0
vn 0.55 -0.835 0
vn 0.195 -0.981 0
vn -0.195 -0.981 0
vn -0.55 -0.835 0
vn -0.81 -0.587 0
vn 0.674 -0.739 0
vn 0.76 0.65 0
vn 0.655 0.755 0
vn 0.545 0.839 0
vn 0.432 0.902 0
vn 0.321 0.947 0
vn 0.212 0.977 0
vn 0.106 0.994 0
vn 0 1 0
vn -0.106 0.994 0
vn -0.212 0.977 0
vn -0.321 0.947 0
vn -0.432 0.902 0
vn -0.545 0.839 0
vn -0.655 0.755 0
vn -0.76 0.65 0
vn -0.852 0.523 0
vn 0 0 1
vn 0 0 -1
f 1/1/1 2/1/1 3/1/1
f 3/1/1 2/1/1 4/1/1
f 3/1/2 4/1/2 5/1/2
f 5/1/2 4/1/2 6/1/2
f 5/1/3 6/1/3 7/1/3
f 7/1/3 6/1/3 8/1/3
f 7/1/4 8/1/4 9/1/4
f 9/1/4 8/1/4 10/1/4
f 9/1/5 10/1/5 11/1/5
f 11/1/5 10/1/5 12/1/5
f 11/1/6 12/1/6 13/1/6
f 13/1/6 12/1/6 14/1/6
f 13/1/7 14/1/7 15/1/7
f 15/1/7 14/1/7 16/1/7
f 15/1/8 16/1/8 17/1/8
f 17/1/8 16/1/8 18/1/8
f 17/1/9 18/1/9 19/1/9
f 19/1/9 18/1/9 20/1/9
f 19/1/10 20/1/10 21/1/10
f 21/1/10 20/1/10 22/1/10
f 21/1/11 22/1/11 23/1/11
f 23/1/11 22/1/11 24/1/11
f 23/1/12 24/1/12 25/1/12
f 25/1/12 24/1/12 26/1/12
f 25/1/13 26/1/13 27/1/13
f 27/1/13 26/1/13 28/1/13
f 27/1/14 28/1/14 29/1/14
f 29/1/14 28/1/14 30/1/14
f 29/1/15 30/1/15 31/1/15
f 31/1/15 30/1/15 32/1/15
f 31/1/16 32/1/16 33/1/16
f 33/1/16 32/1/16 34/1/16
f 33/1/17 34/1/17 35/1/17
f 35/1/17 34/1/17 36/1/17
f 35/1/18 36/1/18 37/1/18
f 37/1/18 36/1/18 38/1/18
f 37/1/19 38/1/19 39/1/19
f 39/1/19 38/1/19 40/1/19
f 39/1/20 40/1/20 41/1/20
f 41/1/20 40/1/20 42/1/20
f 41/1/21 42/1/21 43/1/21
f 43/1/21 42/1/21 44/1/21
f 43/1/22 44/1/22 45/1/22
f 45/1/22 44/1/22 46/1/22
f 45/1/23 46/1/23 47/1/23
f 47/1/23 46/1/23 48/1/23
f 47/1/24 48/1/24 49/1/24
f 49/1/24 48/1/24 50/1/24
f 49/1/25 50/1/25 51/1/25
f 51/1/25 50/1/25 52/1/25
f 51/1/26 52/1/26 53/1/26
f 53/1/26 52/1/26 54/1/26
f 53/1/27 54/1/27 55/1/27
f 55/1/27 54/1/27 56/1/27
f 55/1/28 56/1/28 57/1/28
f 57/1/28 56/1/28 58/1/28
f 57/1/29 58/1/29 59/1/29
f 59/1/29 58/1/29 60/1/29
f 59/1/30 60/1/30 61/1/30
f 61/1/30 60/1/30 62/1/30
f 61/1/31 62/1/31 63/1/31
f 63/1/31 62/1/31 64/1/31
f 63/1/32 64/1/32 65/1/32
f 65/1/32 64/1/32 66/1/32
f 65/1/33 66/1/33 67/1/33
f 67/1/33 66/1/33 68/1/33
f 67/1/34 68/1/34 69/1/34
f 69/1/34 68/1/34 70/1/34
f 69/1/35 70/1/35 71/1/35
f 71/1/35 70/1/35 72/1/35
f 71/1/36 72/1/36 73/1/36
f 73/1/36 72/1/36 74/1/36
f 73/1/37 74/1/37 75/1/37
f 75/1/37 74/1/37 76/1/37
f 75/1/38 76/1/38 77/1/38
f 77/1/38 76/1/38 78/1/38
f 77/1/39 78/1/39 79/1/39
f 79/1/39 78/1/39 80/1/39
f 79/1/40 80/1/40 81/1/40
f 81/1/40 80/1/40 82/1/40
f 81/1/41 82/1/41 83/1/41
f 83/1/41 82/1/41 84/1/41
f 83/1/42 84/1/42 85/1/42
f 85/1/42 84/1/42 86/1/42
f 85/1/43 86/1/43 87/1/43
f 87/1/43 86/1/43 88/1/43
f 87/1/44 88/1/44 89/1/44
f 89/1/44 88/1/44 90/1/44
f 89/1/45 90/1/45 91/1/45
f 91/1/45 90/1/45 92/1/45
f 91/1/46 92/1/46 93/1/46
f 93/1/46 92/1/46 94/1/46
f 93/1/47 94/1/47 95/1/47
f 95/1/47 94/1/47 96/1/47
f 95/1/48 96/1/48 97/1/48
f 97/1/48 96/1/48 98/1/48
f 97/1/49 98/1/49 99/1/49
f 99/1/49 98/1/49 100/1/49
f 99/1/50 100/1/50 101/1/50
f 101/1/50 100/1/50 102/1/50
f 101/1/51 102/1/51 103/1/51
f 103/1/51 102/1/51 104/1/51
f 103/1/52 104/1/52 105/1/52
f 105/1/52 104/1/52 106/1/52
f 105/1/53 106/1/53 107/1/53
f 107/1/53 106/1/53 108/1/53
f 107/1/54 108/1/54 109/1/54
f 109/1/54 108/1/54 110/1/54
f 109/1/55 110/1/55 111/1/55
f 111/1/55 110/1/55 112/1/55
f 111/1/56 112/1/56 113/1/56
f 113/1/56 112/1/56 114/1/56
f 113/1/57 114/1/57 115/1/57
f 115/1/57 114/1/57 116/1/57
f 115/1/58 116/1/58 117/1/58
f 117/1/58 116/1/58 118/1/58
f 117/1/59 118/1/59 119/1/59
f 119/1/59 118/1/59 120/1/59
f 119/1/60 120/1/60 121/1/60
f 121/1/60 120/1/60 122/1/60
f 121/1/61 122/1/61 123/1/61
f 123/1/61 122/1/61 124/1/61
f 123/1/62 124/1/62 125/1/62
f 125/1/62 124/1/62 126/1/62
f 125/1/63 126/1/63 1/1/63
f 1/1/63 126/1/63 2/1/63
f 127/2/64 128/2/64 129/2/64
f 127/2/64 129/2/64 130/2/64
f 127/2/64 130/2/64 131/2/64
f 127/2/64 131/2/64 132/2/64
f 127/2/64 132/2/64 133/2/64
f 127/2/64 133/2/64 134/2/64
f 127/2/64 134/2/64 135/2/64
f 127/2/64 135/2/64 136/2/64
f 127/2/64 136/2/64 137/2/64
f 127/2/64 137/2/64 138/2/64
f 127/2/64 138/2/64 139/2/64
f 127/2/64 139/2/64 140/2/64
f 127/2/64 140/2/64 141/2/64
f 127/2/64 141/2/64 142/2/64
f 127/2/64 142/2/64 143/2/64
f 127/2/64 143/2/64 144/2/64
f 127/2/64 144/2/64 145/2/64
f 127/2/64 145/2/64 146/2/64
f 147/2/64 127/2/64 146/2/64
f 148/2/64 149/2/64 147/2/64
f 150/2/64 148/2/64 147/2/64
f 151/2/64 150/2/64 147/2/64
f 152/2/64 151/2/64 147/2/64
f 153/2/64 152/2/64 147/2/64
f 154/2/64 153/2/64 147/2/64
f 155/2/64 154/2/64 147/2/64
f 156/2/64 155/2/64 147/2/64
f 157/2/64 156/2/64 147/2/64
f 158/2/64 157/2/64 147/2/64
f 159/2/64 158/2/64 147/2/64
f 160/2/64 161/2/64 159/2/64
f 160/2/64 159/2/64 147/2/64
f 162/2/64 160/2/64 147/2/64
f 163/2/64 162/2/64 147/2/64
f 164/2/64 163/2/64 147/2/64
f 165/2/64 164/2/64 147/2/64
f 166/2/64 165/2/64 147/2/64
f 167/2/64 166/2/64 147/2/64
f 168/2/64 167/2/64 147/2/64
f 169/2/64 168/2/64 147/2/64
f 170/2/64 169/2/64 147/2/64
f 171/2/64 170/2/64 147/2/64
f 171/2/64 147/2/64 146/2/64
f 172/2/64 171/2/64 146/2/64
f 172/2/64 146/2/64 173/2/64
f 174/2/64 172/2/64 173/2/64
f 174/2/64 173/2/64 175/2/64
f 174/2/64 175/2/64 176/2/64
f 177/2/64 174/2/64 176/2/64
f 177/2/64 176/2/64 178/2/64
f 177/2/64 178/2/64 179/2/64
f 180/2/64 177/2/64 179/2/64
f 180/2/64 179/2/64 181/2/64
f 180/2/64 181/2/64 182/2/64
f 183/2/64 180/2/64 182/2/64
f 184/2/64 183/2/64 182/2/64
f 185/2/64 184/2/64 182/2/64
f 185/2/64 182/2/64 186/2/64
f 1/3/64 128/3/64 127/3/64
f 1/3/64 127/3/64 147/3/64
f 1/3/64 147/3/64 149/3/64
f 125/3/64 1/3/64 149/3/64
f 125/3/64 149/3/64 148/3/64
f 123/3/64 125/3/64 148/3/64
f 123/3/64 148/3/64 150/3/64
f 121/3/64 123/3/64 150/3/64
f 121/3/64 150/3/64 151/3/64
f 119/3/64 121/3/64 151/3/64
f 119/3/64 151/3/64 152/3/64
f 117/3/64 119/3/64 152/3/64
f 117/3/64 152/3/64 153/3/64
f 115/3/64 117/3/64 153/3/64
f 115/3/64 153/3/64 154/3/64
f 113/3/64 115/3/64 154/3/64
f 113/3/64 154/3/64 155/3/64
f 111/3/64 113/3/64 155/3/64
f 111/3/64 155/3/64 156/3/64
f 109/3/64 111/3/64 156/3/64
f 109/3/64 156/3/64 157/3/64
f 107/3/64 109/3/64 157/3/64
f 105/3/64 107/3/64 157/3/64
f 105/3/64 157/3/64 158/3/64
f 103/3/64 105/3/64 158/3/64
f 103/3/64 158/3/64 159/3/64
f 101/3/64 103/3/64 159/3/64
f 99/3/64 101/3/64 159/3/64
f 97/3/64 99/3/64 159/3/64
f 95/3/64 97/3/64 159/3/64
f 95/3/64 159/3/64 161/3/64
f 93/3/64 95/3/64 161/3/64
f 93/3/64 161/3/64 160/3/64
f 91/3/64 93/3/64 160/3/64
f 91/3/64 160/3/64 162/3/64
f 89/3/64 91/3/64 162/3/64
f 89/3/64 162/3/64 163/3/64
f 87/3/64 89/3/64 163/3/64
f 87/3/64 163/3/64 164/3/64
f 87/3/64 164/3/64 165/3/64
f 85/3/64 87/3/64 165/3/64
f 85/3/64 165/3/64 166/3/64
f 83/3/64 85/3/64 166/3/64
f 83/3/64 166/3/64 167/3/64
f 83/3/64 167/3/64 168/3/64
f 81/3/64 83/3/64 168/3/64
f 81/3/64 168/3/64 169/3/64
f 79/3/64 81/3/64 169/3/64
f 79/3/64 169/3/64 170/3/64
f 77/3/64 79/3/64 170/3/64
f 77/3/64 170/3/64 171/3/64
f 77/3/64 171/3/64 172/3/64
f 75/3/64 77/3/64 172/3/64
f 75/3/64 172/3/64 174/3/64
f 73/3/64 75/3/64 174/3/64
f 73/3/64 174/3/64 177/3/64
f 71/3/64 73/3/64 177/3/64
f 69/3/64 71/3/64 177/3/64
f 69/3/64 177/3/64 180/3/64
f 67/3/64 69/3/64 180/3/64
f 67/3/64 180/3/64 183/3/64
f 65/3/64 67/3/64 183/3/64
f 65/3/64 183/3/64 184/3/64
f 63/3/64 65/3/64 184/3/64
f 63/3/64 184/3/64 185/3/64
f 61/3/64 63/3/64 185/3/64
f 61/3/64 185/3/64 186/3/64
f 59/3/64 61/3/64 186/3/64
f 57/3/64 59/3/64 186/3/64
f 57/3/64 186/3/64 182/3/64
f 55/3/64 57/3/64 182/3/64
f 55/3/64 182/3/64 181/3/64
f 55/3/64 181/3/64 179/3/64
f 53/3/64 55/3/64 179/3/64
f 53/3/64 179/3/64 178/3/64
f 51/3/64 53/3/64 178/3/64
f 51/3/64 178/3/64 176/3/64
f 49/3/64 51/3/64 176/3/64
f 49/3/64 176/3/64 175/3/64
f 47/3/64 49/3/64 175/3/64
f 47/3/64 175/3/64 173/3/64
f 45/3/64 47/3/64 173/3/64
f 45/3/64 173/3/64 146/3/64
f 43/3/64 45/3/64 146/3/64
f 43/3/64 146/3/64 145/3/64
f 41/3/64 43/3/64 145/3/64
f 41/3/64 145/3/64 144/3/64
f 39/3/64 41/3/64 144/3/64
f 37/3/64 39/3/64 144/3/64
f 37/3/64 144/3/64 143/3/64
f 35/3/64 37/3/64 143/3/64
f 35/3/64 143/3/64 142/3/64
f 33/3/64 35/3/64 142/3/64
f 33/3/64 142/3/64 141/3/64
f 31/3/64 33/3/64 141/3/64
f 31/3/64 141/3/64 140/3/64
f 29/3/64 31/3/64 140/3/64
f 29/3/64 140/3/64 139/3/64
f 27/3/64 29/3/64 139/3/64
f 27/3/64 139/3/64 138/3/64
f 27/3/64 138/3/64 137/3/64
f 25/3/64 27/3/64 137/3/64
f 25/3/64 137/3/64 136/3/64
f 23/3/64 25/3/64 136/3/64
f 23/3/64 136/3/64 135/3/64
f 21/3/64 23/3/64 135/3/64
f 21/3/64 135/3/64 134/3/64
f 19/3/64 21/3/64 134/3/64
f 19/3/64 134/3/64 133/3/64
f 17/3/64 19/3/64 133/3/64
f 17/3/64 133/3/64 132/3/64
f 15/3/64 17/3/64 132/3/64
f 15/3/64 132/3/64 131/3/64
f 13/3/64 15/3/64 131/3/64
f 13/3/64 131/3/64 130/3/64
f 11/3/64 13/3/64 130/3/64
f 11/3/64 130/3/64 129/3/64
f 11/3/64 129/3/64 3/3/64
f 11/3/64 3/3/64 5/3/64
f 11/3/64 5/3/64 7/3/64
f 11/3/64 7/3/64 9/3/64
f 1/3/64 3/3/64 128/3/64
f 128/3/64 3/3/64 129/3/64
f 126/1/65 4/1/65 2/1/65
f 126/1/65 6/1/65 4/1/65
f 126/1/65 8/1/65 6/1/65
f 126/1/65 10/1/65 8/1/65
f 126/1/65 12/1/65 10/1/65
f 126/1/65 14/1/65 12/1/65
f 126/1/65 16/1/65 14/1/65
f 126/1/65 18/1/65 16/1/65
f 126/1/65 20/1/65 18/1/65
f 126/1/65 22/1/65 20/1/65
f 126/1/65 24/1/65 22/1/65
f 126/1/65 26/1/65 24/1/65
f 126/1/65 28/1/65 26/1/65
f 126/1/65 30/1/65 28/1/65
f 126/1/65 32/1/65 30/1/65
f 126/1/65 34/1/65 32/1/65
f 126/1/65 36/1/65 34/1/65
f 126/1/65 38/1/65 36/1/65
f 126/1/65 40/1/65 38/1/65
f 126/1/65 42/1/65 40/1/65
f 126/1/65 44/1/65 42/1/65
f 122/1/65 126/1/65 124/1/65
f 120/1/65 126/1/65 122/1/65
f 118/1/65 126/1/65 120/1/65
f 116/1/65 126/1/65 118/1/65
f 114/1/65 126/1/65 116/1/65
f 112/1/65 126/1/65 114/1/65
f 110/1/65 126/1/65 112/1/65
f 108/1/65 126/1/65 110/1/65
f 106/1/65 126/1/65 108/1/65
f 104/1/65 126/1/65 106/1/65
f 102/1/65 126/1/65 104/1/65
f 100/1/65 126/1/65 102/1/65
f 98/1/65 126/1/65 100/1/65
f 96/1/65 126/1/65 98/1/65
f 92/1/65 96/1/65 94/1/65
f 90/1/65 96/1/65 92/1/65
f 90/1/65 126/1/65 96/1/65
f 88/1/65 126/1/65 90/1/65
f 86/1/65 126/1/65 88/1/65
f 84/1/65 126/1/65 86/1/65
f 82/1/65 126/1/65 84/1/65
f 80/1/65 126/1/65 82/1/65
f 78/1/65 126/1/65 80/1/65
f 76/1/65 126/1/65 78/1/65
f 74/1/65 126/1/65 76/1/65
f 72/1/65 126/1/65 74/1/65
f 70/1/65 126/1/65 72/1/65
f 70/1/65 44/1/65 126/1/65
f 70/1/65 46/1/65 44/1/65
f 68/1/65 46/1/65 70/1/65
f 68/1/65 48/1/65 46/1/65
f 68/1/65 50/1/65 48/1/65
f 68/1/65 52/1/65 50/1/65
f 66/1/65 52/1/65 68/1/65
f 66/1/65 54/1/65 52/1/65
f 66/1/65 56/1/65 54/1/65
f 64/1/65 56/1/65 66/1/65
f 62/1/65 56/1/65 64/1/65
f 60/1/65 56/1/65 62/1/65
f 60/1/65 58/1/65 56/1/65